<mxfile host="app.diagrams.net" modified="2023-10-29T16:53:04.812Z" agent="Mozilla/5.0 (Windows NT 10.0; Win64; x64) AppleWebKit/537.36 (KHTML, like Gecko) Chrome/118.0.0.0 Safari/537.36" etag="WjlkTrGY7Pa2GwM2Kcru" version="22.0.8" type="device" pages="2">
  <diagram name="Страница — 1" id="Nd0zr17Eo7cc95A9aSMg">
    <mxGraphModel dx="1669" dy="674" grid="1" gridSize="10" guides="1" tooltips="1" connect="1" arrows="1" fold="1" page="1" pageScale="1" pageWidth="3300" pageHeight="4681" math="0" shadow="0">
      <root>
        <mxCell id="0" />
        <mxCell id="1" parent="0" />
        <mxCell id="23p0zSZ361LVQk1D0dd5-1" value="Student&lt;br&gt;" style="rounded=0;whiteSpace=wrap;html=1;fillColor=#ffe6cc;strokeColor=#d79b00;" parent="1" vertex="1">
          <mxGeometry x="236" y="760" width="80" height="40" as="geometry" />
        </mxCell>
        <mxCell id="23p0zSZ361LVQk1D0dd5-46" style="edgeStyle=orthogonalEdgeStyle;rounded=0;orthogonalLoop=1;jettySize=auto;html=1;entryX=0;entryY=0.5;entryDx=0;entryDy=0;" parent="1" source="23p0zSZ361LVQk1D0dd5-2" target="23p0zSZ361LVQk1D0dd5-1" edge="1">
          <mxGeometry relative="1" as="geometry" />
        </mxCell>
        <mxCell id="23p0zSZ361LVQk1D0dd5-2" value="&lt;u&gt;ID&lt;/u&gt;" style="ellipse;whiteSpace=wrap;html=1;fillColor=#d5e8d4;strokeColor=#82b366;" parent="1" vertex="1">
          <mxGeometry x="106" y="684.5" width="80" height="30" as="geometry" />
        </mxCell>
        <mxCell id="23p0zSZ361LVQk1D0dd5-44" style="edgeStyle=orthogonalEdgeStyle;rounded=0;orthogonalLoop=1;jettySize=auto;html=1;entryX=0;entryY=0.5;entryDx=0;entryDy=0;" parent="1" source="23p0zSZ361LVQk1D0dd5-3" target="23p0zSZ361LVQk1D0dd5-1" edge="1">
          <mxGeometry relative="1" as="geometry" />
        </mxCell>
        <mxCell id="23p0zSZ361LVQk1D0dd5-3" value="Name" style="ellipse;whiteSpace=wrap;html=1;fillColor=#d5e8d4;strokeColor=#82b366;" parent="1" vertex="1">
          <mxGeometry x="106" y="724.5" width="80" height="30" as="geometry" />
        </mxCell>
        <mxCell id="AqB2Rs3mdMIoe19Igv_4-3" style="edgeStyle=orthogonalEdgeStyle;rounded=0;orthogonalLoop=1;jettySize=auto;html=1;entryX=0;entryY=0.5;entryDx=0;entryDy=0;" edge="1" parent="1" source="23p0zSZ361LVQk1D0dd5-7" target="23p0zSZ361LVQk1D0dd5-1">
          <mxGeometry relative="1" as="geometry" />
        </mxCell>
        <mxCell id="23p0zSZ361LVQk1D0dd5-7" value="Surname" style="ellipse;whiteSpace=wrap;html=1;fillColor=#d5e8d4;strokeColor=#82b366;" parent="1" vertex="1">
          <mxGeometry x="106" y="764.5" width="80" height="30" as="geometry" />
        </mxCell>
        <mxCell id="23p0zSZ361LVQk1D0dd5-47" style="edgeStyle=orthogonalEdgeStyle;rounded=0;orthogonalLoop=1;jettySize=auto;html=1;entryX=0;entryY=0.5;entryDx=0;entryDy=0;" parent="1" source="23p0zSZ361LVQk1D0dd5-8" target="23p0zSZ361LVQk1D0dd5-1" edge="1">
          <mxGeometry relative="1" as="geometry" />
        </mxCell>
        <mxCell id="23p0zSZ361LVQk1D0dd5-8" value="Date of Birth" style="ellipse;whiteSpace=wrap;html=1;fillColor=#d5e8d4;strokeColor=#82b366;" parent="1" vertex="1">
          <mxGeometry x="106" y="804.5" width="80" height="30" as="geometry" />
        </mxCell>
        <mxCell id="23p0zSZ361LVQk1D0dd5-21" value="Class" style="rounded=0;whiteSpace=wrap;html=1;fillColor=#ffe6cc;strokeColor=#d79b00;" parent="1" vertex="1">
          <mxGeometry x="440" y="290" width="80" height="40" as="geometry" />
        </mxCell>
        <mxCell id="23p0zSZ361LVQk1D0dd5-27" style="edgeStyle=orthogonalEdgeStyle;rounded=0;orthogonalLoop=1;jettySize=auto;html=1;" parent="1" source="23p0zSZ361LVQk1D0dd5-22" target="23p0zSZ361LVQk1D0dd5-21" edge="1">
          <mxGeometry relative="1" as="geometry">
            <Array as="points">
              <mxPoint x="375" y="270" />
              <mxPoint x="480" y="270" />
            </Array>
          </mxGeometry>
        </mxCell>
        <mxCell id="23p0zSZ361LVQk1D0dd5-22" value="&lt;u&gt;ID&lt;/u&gt;" style="ellipse;whiteSpace=wrap;html=1;fillColor=#d5e8d4;strokeColor=#82b366;" parent="1" vertex="1">
          <mxGeometry x="330" y="220" width="90" height="30" as="geometry" />
        </mxCell>
        <mxCell id="23p0zSZ361LVQk1D0dd5-28" value="" style="edgeStyle=orthogonalEdgeStyle;rounded=0;orthogonalLoop=1;jettySize=auto;html=1;" parent="1" source="23p0zSZ361LVQk1D0dd5-23" target="23p0zSZ361LVQk1D0dd5-21" edge="1">
          <mxGeometry relative="1" as="geometry">
            <Array as="points">
              <mxPoint x="480" y="270" />
              <mxPoint x="480" y="270" />
            </Array>
          </mxGeometry>
        </mxCell>
        <mxCell id="23p0zSZ361LVQk1D0dd5-23" value="Class Number" style="ellipse;whiteSpace=wrap;html=1;fillColor=#d5e8d4;strokeColor=#82b366;" parent="1" vertex="1">
          <mxGeometry x="435" y="220" width="90" height="30" as="geometry" />
        </mxCell>
        <mxCell id="23p0zSZ361LVQk1D0dd5-29" style="edgeStyle=orthogonalEdgeStyle;rounded=0;orthogonalLoop=1;jettySize=auto;html=1;" parent="1" target="23p0zSZ361LVQk1D0dd5-21" edge="1">
          <mxGeometry relative="1" as="geometry">
            <mxPoint x="575" y="249.62494064565362" as="sourcePoint" />
            <Array as="points">
              <mxPoint x="575" y="270" />
              <mxPoint x="480" y="270" />
            </Array>
          </mxGeometry>
        </mxCell>
        <mxCell id="23p0zSZ361LVQk1D0dd5-25" value="Alphabetic identifier" style="ellipse;whiteSpace=wrap;html=1;fillColor=#d5e8d4;strokeColor=#82b366;" parent="1" vertex="1">
          <mxGeometry x="540" y="220" width="90" height="30" as="geometry" />
        </mxCell>
        <mxCell id="23p0zSZ361LVQk1D0dd5-30" value="Belongs to" style="shape=associativeEntity;whiteSpace=wrap;html=1;align=center;fillColor=#dae8fc;strokeColor=#6c8ebf;" parent="1" vertex="1">
          <mxGeometry x="236" y="419" width="80" height="40" as="geometry" />
        </mxCell>
        <mxCell id="23p0zSZ361LVQk1D0dd5-49" value="" style="shape=link;html=1;rounded=0;exitX=0;exitY=1;exitDx=0;exitDy=0;entryX=1;entryY=0;entryDx=0;entryDy=0;" parent="1" target="23p0zSZ361LVQk1D0dd5-30" edge="1" source="23p0zSZ361LVQk1D0dd5-21">
          <mxGeometry relative="1" as="geometry">
            <mxPoint x="479.71000000000004" y="330" as="sourcePoint" />
            <mxPoint x="480" y="370" as="targetPoint" />
          </mxGeometry>
        </mxCell>
        <mxCell id="23p0zSZ361LVQk1D0dd5-54" value="Parent" style="rounded=0;whiteSpace=wrap;html=1;fillColor=#ffe6cc;strokeColor=#d79b00;" parent="1" vertex="1">
          <mxGeometry x="236" y="1042" width="80" height="38" as="geometry" />
        </mxCell>
        <mxCell id="23p0zSZ361LVQk1D0dd5-63" style="edgeStyle=orthogonalEdgeStyle;rounded=0;orthogonalLoop=1;jettySize=auto;html=1;entryX=0;entryY=0.5;entryDx=0;entryDy=0;" parent="1" source="23p0zSZ361LVQk1D0dd5-57" target="23p0zSZ361LVQk1D0dd5-54" edge="1">
          <mxGeometry relative="1" as="geometry" />
        </mxCell>
        <mxCell id="23p0zSZ361LVQk1D0dd5-57" value="&lt;u&gt;ID&lt;/u&gt;" style="ellipse;whiteSpace=wrap;html=1;fillColor=#d5e8d4;strokeColor=#82b366;" parent="1" vertex="1">
          <mxGeometry x="106" y="980" width="80" height="30" as="geometry" />
        </mxCell>
        <mxCell id="23p0zSZ361LVQk1D0dd5-64" style="edgeStyle=orthogonalEdgeStyle;rounded=0;orthogonalLoop=1;jettySize=auto;html=1;entryX=0;entryY=0.5;entryDx=0;entryDy=0;" parent="1" source="23p0zSZ361LVQk1D0dd5-58" target="23p0zSZ361LVQk1D0dd5-54" edge="1">
          <mxGeometry relative="1" as="geometry" />
        </mxCell>
        <mxCell id="23p0zSZ361LVQk1D0dd5-58" value="Name" style="ellipse;whiteSpace=wrap;html=1;fillColor=#d5e8d4;strokeColor=#82b366;" parent="1" vertex="1">
          <mxGeometry x="106" y="1020" width="80" height="30" as="geometry" />
        </mxCell>
        <mxCell id="23p0zSZ361LVQk1D0dd5-65" style="edgeStyle=orthogonalEdgeStyle;rounded=0;orthogonalLoop=1;jettySize=auto;html=1;entryX=0;entryY=0.5;entryDx=0;entryDy=0;" parent="1" source="23p0zSZ361LVQk1D0dd5-59" target="23p0zSZ361LVQk1D0dd5-54" edge="1">
          <mxGeometry relative="1" as="geometry" />
        </mxCell>
        <mxCell id="23p0zSZ361LVQk1D0dd5-59" value="Surname" style="ellipse;whiteSpace=wrap;html=1;fillColor=#d5e8d4;strokeColor=#82b366;" parent="1" vertex="1">
          <mxGeometry x="106" y="1060" width="80" height="30" as="geometry" />
        </mxCell>
        <mxCell id="23p0zSZ361LVQk1D0dd5-66" style="edgeStyle=orthogonalEdgeStyle;rounded=0;orthogonalLoop=1;jettySize=auto;html=1;entryX=0;entryY=0.5;entryDx=0;entryDy=0;" parent="1" source="23p0zSZ361LVQk1D0dd5-60" target="23p0zSZ361LVQk1D0dd5-54" edge="1">
          <mxGeometry relative="1" as="geometry" />
        </mxCell>
        <mxCell id="23p0zSZ361LVQk1D0dd5-60" value="Contact Info" style="ellipse;whiteSpace=wrap;html=1;fillColor=#d5e8d4;strokeColor=#82b366;" parent="1" vertex="1">
          <mxGeometry x="106" y="1100" width="80" height="30" as="geometry" />
        </mxCell>
        <mxCell id="23p0zSZ361LVQk1D0dd5-62" value="Has" style="shape=associativeEntity;whiteSpace=wrap;html=1;align=center;fillColor=#dae8fc;strokeColor=#6c8ebf;" parent="1" vertex="1">
          <mxGeometry x="236" y="880" width="80" height="40" as="geometry" />
        </mxCell>
        <mxCell id="23p0zSZ361LVQk1D0dd5-68" value="" style="shape=link;html=1;rounded=0;exitX=0.5;exitY=1;exitDx=0;exitDy=0;entryX=0.5;entryY=0;entryDx=0;entryDy=0;" parent="1" edge="1">
          <mxGeometry relative="1" as="geometry">
            <mxPoint x="275.64" y="800" as="sourcePoint" />
            <mxPoint x="275.93" y="880" as="targetPoint" />
          </mxGeometry>
        </mxCell>
        <mxCell id="23p0zSZ361LVQk1D0dd5-69" value="N" style="resizable=0;html=1;align=right;verticalAlign=bottom;" parent="23p0zSZ361LVQk1D0dd5-68" connectable="0" vertex="1">
          <mxGeometry x="1" relative="1" as="geometry">
            <mxPoint x="-8" y="-59" as="offset" />
          </mxGeometry>
        </mxCell>
        <mxCell id="23p0zSZ361LVQk1D0dd5-73" value="Teacher" style="rounded=0;whiteSpace=wrap;html=1;fillColor=#ffe6cc;strokeColor=#d79b00;" parent="1" vertex="1">
          <mxGeometry x="840" y="140" width="80" height="40" as="geometry" />
        </mxCell>
        <mxCell id="23p0zSZ361LVQk1D0dd5-78" style="edgeStyle=orthogonalEdgeStyle;rounded=0;orthogonalLoop=1;jettySize=auto;html=1;entryX=0.5;entryY=0;entryDx=0;entryDy=0;" parent="1" source="23p0zSZ361LVQk1D0dd5-74" target="23p0zSZ361LVQk1D0dd5-73" edge="1">
          <mxGeometry relative="1" as="geometry">
            <Array as="points">
              <mxPoint x="725" y="120" />
              <mxPoint x="880" y="120" />
            </Array>
          </mxGeometry>
        </mxCell>
        <mxCell id="23p0zSZ361LVQk1D0dd5-74" value="&lt;u&gt;ID&lt;/u&gt;" style="ellipse;whiteSpace=wrap;html=1;fillColor=#d5e8d4;strokeColor=#82b366;" parent="1" vertex="1">
          <mxGeometry x="680" y="70" width="90" height="30" as="geometry" />
        </mxCell>
        <mxCell id="23p0zSZ361LVQk1D0dd5-79" style="edgeStyle=orthogonalEdgeStyle;rounded=0;orthogonalLoop=1;jettySize=auto;html=1;exitX=0.5;exitY=1;exitDx=0;exitDy=0;entryX=0.5;entryY=0;entryDx=0;entryDy=0;" parent="1" source="23p0zSZ361LVQk1D0dd5-75" target="23p0zSZ361LVQk1D0dd5-73" edge="1">
          <mxGeometry relative="1" as="geometry" />
        </mxCell>
        <mxCell id="23p0zSZ361LVQk1D0dd5-75" value="Name" style="ellipse;whiteSpace=wrap;html=1;fillColor=#d5e8d4;strokeColor=#82b366;" parent="1" vertex="1">
          <mxGeometry x="780" y="70" width="90" height="30" as="geometry" />
        </mxCell>
        <mxCell id="23p0zSZ361LVQk1D0dd5-80" style="edgeStyle=orthogonalEdgeStyle;rounded=0;orthogonalLoop=1;jettySize=auto;html=1;entryX=0.5;entryY=0;entryDx=0;entryDy=0;" parent="1" source="23p0zSZ361LVQk1D0dd5-76" target="23p0zSZ361LVQk1D0dd5-73" edge="1">
          <mxGeometry relative="1" as="geometry" />
        </mxCell>
        <mxCell id="23p0zSZ361LVQk1D0dd5-76" value="Surname" style="ellipse;whiteSpace=wrap;html=1;fillColor=#d5e8d4;strokeColor=#82b366;" parent="1" vertex="1">
          <mxGeometry x="880" y="70" width="90" height="30" as="geometry" />
        </mxCell>
        <mxCell id="23p0zSZ361LVQk1D0dd5-81" style="edgeStyle=orthogonalEdgeStyle;rounded=0;orthogonalLoop=1;jettySize=auto;html=1;entryX=0.5;entryY=0;entryDx=0;entryDy=0;" parent="1" source="23p0zSZ361LVQk1D0dd5-77" target="23p0zSZ361LVQk1D0dd5-73" edge="1">
          <mxGeometry relative="1" as="geometry">
            <Array as="points">
              <mxPoint x="1025" y="120" />
              <mxPoint x="880" y="120" />
            </Array>
          </mxGeometry>
        </mxCell>
        <mxCell id="23p0zSZ361LVQk1D0dd5-77" value="SubjectId" style="ellipse;whiteSpace=wrap;html=1;fillColor=#d5e8d4;strokeColor=#82b366;" parent="1" vertex="1">
          <mxGeometry x="980" y="70" width="90" height="30" as="geometry" />
        </mxCell>
        <mxCell id="23p0zSZ361LVQk1D0dd5-82" value="Has" style="shape=associativeEntity;whiteSpace=wrap;html=1;align=center;fillColor=#dae8fc;strokeColor=#6c8ebf;" parent="1" vertex="1">
          <mxGeometry x="640" y="140" width="80" height="40" as="geometry" />
        </mxCell>
        <mxCell id="23p0zSZ361LVQk1D0dd5-83" value="" style="shape=link;html=1;rounded=0;exitX=0.5;exitY=1;exitDx=0;exitDy=0;entryX=1;entryY=0.5;entryDx=0;entryDy=0;" parent="1" source="23p0zSZ361LVQk1D0dd5-82" target="23p0zSZ361LVQk1D0dd5-21" edge="1">
          <mxGeometry relative="1" as="geometry">
            <mxPoint x="580" y="140" as="sourcePoint" />
            <mxPoint x="580.29" y="220" as="targetPoint" />
            <Array as="points">
              <mxPoint x="680" y="310" />
            </Array>
          </mxGeometry>
        </mxCell>
        <mxCell id="23p0zSZ361LVQk1D0dd5-89" value="" style="shape=link;html=1;rounded=0;exitX=0;exitY=0.5;exitDx=0;exitDy=0;entryX=1;entryY=0.5;entryDx=0;entryDy=0;" parent="1" edge="1">
          <mxGeometry relative="1" as="geometry">
            <mxPoint x="840" y="159.55" as="sourcePoint" />
            <mxPoint x="720" y="159.55" as="targetPoint" />
          </mxGeometry>
        </mxCell>
        <mxCell id="23p0zSZ361LVQk1D0dd5-95" value="Subject" style="rounded=0;whiteSpace=wrap;html=1;fillColor=#ffe6cc;strokeColor=#d79b00;" parent="1" vertex="1">
          <mxGeometry x="840" y="419" width="80" height="40" as="geometry" />
        </mxCell>
        <mxCell id="AqB2Rs3mdMIoe19Igv_4-44" style="edgeStyle=orthogonalEdgeStyle;rounded=0;orthogonalLoop=1;jettySize=auto;html=1;entryX=0;entryY=1;entryDx=0;entryDy=0;" edge="1" parent="1" source="23p0zSZ361LVQk1D0dd5-96" target="23p0zSZ361LVQk1D0dd5-95">
          <mxGeometry relative="1" as="geometry">
            <Array as="points">
              <mxPoint x="710" y="500" />
              <mxPoint x="840" y="500" />
            </Array>
          </mxGeometry>
        </mxCell>
        <mxCell id="23p0zSZ361LVQk1D0dd5-96" value="&lt;u&gt;ID&lt;/u&gt;" style="ellipse;whiteSpace=wrap;html=1;fillColor=#d5e8d4;strokeColor=#82b366;" parent="1" vertex="1">
          <mxGeometry x="665" y="542" width="90" height="30" as="geometry" />
        </mxCell>
        <mxCell id="AqB2Rs3mdMIoe19Igv_4-37" style="edgeStyle=orthogonalEdgeStyle;rounded=0;orthogonalLoop=1;jettySize=auto;html=1;entryX=0;entryY=1;entryDx=0;entryDy=0;" edge="1" parent="1" source="23p0zSZ361LVQk1D0dd5-97" target="23p0zSZ361LVQk1D0dd5-95">
          <mxGeometry relative="1" as="geometry" />
        </mxCell>
        <mxCell id="23p0zSZ361LVQk1D0dd5-97" value="Name" style="ellipse;whiteSpace=wrap;html=1;fillColor=#d5e8d4;strokeColor=#82b366;" parent="1" vertex="1">
          <mxGeometry x="765" y="542" width="90" height="30" as="geometry" />
        </mxCell>
        <mxCell id="23p0zSZ361LVQk1D0dd5-101" value="Studies" style="shape=associativeEntity;whiteSpace=wrap;html=1;align=center;fillColor=#dae8fc;strokeColor=#6c8ebf;" parent="1" vertex="1">
          <mxGeometry x="640" y="419" width="80" height="40" as="geometry" />
        </mxCell>
        <mxCell id="23p0zSZ361LVQk1D0dd5-107" value="" style="shape=link;html=1;rounded=0;entryX=1;entryY=1;entryDx=0;entryDy=0;exitX=0;exitY=0;exitDx=0;exitDy=0;" parent="1" source="23p0zSZ361LVQk1D0dd5-101" target="23p0zSZ361LVQk1D0dd5-21" edge="1">
          <mxGeometry relative="1" as="geometry">
            <mxPoint x="740" y="380" as="sourcePoint" />
            <mxPoint x="580" y="379" as="targetPoint" />
            <Array as="points" />
          </mxGeometry>
        </mxCell>
        <mxCell id="23p0zSZ361LVQk1D0dd5-109" value="" style="shape=link;html=1;rounded=0;exitX=0;exitY=0.5;exitDx=0;exitDy=0;entryX=1;entryY=0.5;entryDx=0;entryDy=0;" parent="1" edge="1">
          <mxGeometry relative="1" as="geometry">
            <mxPoint x="840" y="438.57" as="sourcePoint" />
            <mxPoint x="720" y="438.57" as="targetPoint" />
          </mxGeometry>
        </mxCell>
        <mxCell id="23p0zSZ361LVQk1D0dd5-113" value="M" style="resizable=0;html=1;align=right;verticalAlign=bottom;" parent="1" connectable="0" vertex="1">
          <mxGeometry x="837.9999980946282" y="437.9994743801801" as="geometry" />
        </mxCell>
        <mxCell id="23p0zSZ361LVQk1D0dd5-116" value="N" style="resizable=0;html=1;align=right;verticalAlign=bottom;" parent="1" connectable="0" vertex="1">
          <mxGeometry x="531.9999980946282" y="306.99947438018035" as="geometry" />
        </mxCell>
        <mxCell id="23p0zSZ361LVQk1D0dd5-117" value="N" style="resizable=0;html=1;align=right;verticalAlign=bottom;" parent="1" connectable="0" vertex="1">
          <mxGeometry x="526.9999980946282" y="357.99947438018035" as="geometry" />
        </mxCell>
        <mxCell id="23p0zSZ361LVQk1D0dd5-118" value="N" style="resizable=0;html=1;align=right;verticalAlign=bottom;" parent="1" connectable="0" vertex="1">
          <mxGeometry x="263.99999809462815" y="754.9994743801803" as="geometry" />
        </mxCell>
        <mxCell id="23p0zSZ361LVQk1D0dd5-120" value="Teaches" style="shape=associativeEntity;whiteSpace=wrap;html=1;align=center;fillColor=#dae8fc;strokeColor=#6c8ebf;" parent="1" vertex="1">
          <mxGeometry x="840" y="279" width="80" height="40" as="geometry" />
        </mxCell>
        <mxCell id="23p0zSZ361LVQk1D0dd5-121" value="" style="shape=link;html=1;rounded=0;entryX=0.5;entryY=1;entryDx=0;entryDy=0;exitX=0.5;exitY=0;exitDx=0;exitDy=0;" parent="1" source="23p0zSZ361LVQk1D0dd5-120" target="23p0zSZ361LVQk1D0dd5-73" edge="1">
          <mxGeometry relative="1" as="geometry">
            <mxPoint x="880" y="270" as="sourcePoint" />
            <mxPoint x="880" y="191" as="targetPoint" />
          </mxGeometry>
        </mxCell>
        <mxCell id="23p0zSZ361LVQk1D0dd5-122" value="M" style="text;html=1;align=center;verticalAlign=middle;resizable=0;points=[];autosize=1;strokeColor=none;fillColor=none;" parent="1" vertex="1">
          <mxGeometry x="815" y="133" width="30" height="30" as="geometry" />
        </mxCell>
        <mxCell id="23p0zSZ361LVQk1D0dd5-124" value="N" style="resizable=0;html=1;align=right;verticalAlign=bottom;" parent="1" connectable="0" vertex="1">
          <mxGeometry x="874.9999980946282" y="197.99947438018035" as="geometry" />
        </mxCell>
        <mxCell id="23p0zSZ361LVQk1D0dd5-127" value="Grade" style="rounded=0;whiteSpace=wrap;html=1;fillColor=#ffe6cc;strokeColor=#d79b00;" parent="1" vertex="1">
          <mxGeometry x="1680" y="760" width="80" height="40" as="geometry" />
        </mxCell>
        <mxCell id="AqB2Rs3mdMIoe19Igv_4-20" style="edgeStyle=orthogonalEdgeStyle;rounded=0;orthogonalLoop=1;jettySize=auto;html=1;" edge="1" parent="1" source="23p0zSZ361LVQk1D0dd5-128" target="23p0zSZ361LVQk1D0dd5-127">
          <mxGeometry relative="1" as="geometry">
            <Array as="points">
              <mxPoint x="1465" y="830" />
              <mxPoint x="1720" y="830" />
            </Array>
          </mxGeometry>
        </mxCell>
        <mxCell id="23p0zSZ361LVQk1D0dd5-128" value="&lt;u&gt;ID&lt;/u&gt;" style="ellipse;whiteSpace=wrap;html=1;fillColor=#d5e8d4;strokeColor=#82b366;" parent="1" vertex="1">
          <mxGeometry x="1420" y="860" width="90" height="30" as="geometry" />
        </mxCell>
        <mxCell id="AqB2Rs3mdMIoe19Igv_4-22" style="edgeStyle=orthogonalEdgeStyle;rounded=0;orthogonalLoop=1;jettySize=auto;html=1;" edge="1" parent="1" source="23p0zSZ361LVQk1D0dd5-129" target="23p0zSZ361LVQk1D0dd5-127">
          <mxGeometry relative="1" as="geometry">
            <Array as="points">
              <mxPoint x="1570" y="830" />
              <mxPoint x="1720" y="830" />
            </Array>
          </mxGeometry>
        </mxCell>
        <mxCell id="23p0zSZ361LVQk1D0dd5-129" value="Value" style="ellipse;whiteSpace=wrap;html=1;fillColor=#d5e8d4;strokeColor=#82b366;" parent="1" vertex="1">
          <mxGeometry x="1525" y="860" width="90" height="30" as="geometry" />
        </mxCell>
        <mxCell id="AqB2Rs3mdMIoe19Igv_4-23" style="edgeStyle=orthogonalEdgeStyle;rounded=0;orthogonalLoop=1;jettySize=auto;html=1;entryX=0.5;entryY=1;entryDx=0;entryDy=0;" edge="1" parent="1" source="23p0zSZ361LVQk1D0dd5-130" target="23p0zSZ361LVQk1D0dd5-127">
          <mxGeometry relative="1" as="geometry" />
        </mxCell>
        <mxCell id="23p0zSZ361LVQk1D0dd5-130" value="StudentId" style="ellipse;whiteSpace=wrap;html=1;fillColor=#d5e8d4;strokeColor=#82b366;" parent="1" vertex="1">
          <mxGeometry x="1625" y="860" width="90" height="30" as="geometry" />
        </mxCell>
        <mxCell id="AqB2Rs3mdMIoe19Igv_4-24" style="edgeStyle=orthogonalEdgeStyle;rounded=0;orthogonalLoop=1;jettySize=auto;html=1;entryX=0.5;entryY=1;entryDx=0;entryDy=0;" edge="1" parent="1" source="23p0zSZ361LVQk1D0dd5-131" target="23p0zSZ361LVQk1D0dd5-127">
          <mxGeometry relative="1" as="geometry" />
        </mxCell>
        <mxCell id="23p0zSZ361LVQk1D0dd5-131" value="SubjectId" style="ellipse;whiteSpace=wrap;html=1;fillColor=#d5e8d4;strokeColor=#82b366;" parent="1" vertex="1">
          <mxGeometry x="1725" y="860" width="90" height="30" as="geometry" />
        </mxCell>
        <mxCell id="AqB2Rs3mdMIoe19Igv_4-25" style="edgeStyle=orthogonalEdgeStyle;rounded=0;orthogonalLoop=1;jettySize=auto;html=1;entryX=0.5;entryY=1;entryDx=0;entryDy=0;" edge="1" parent="1" source="23p0zSZ361LVQk1D0dd5-132" target="23p0zSZ361LVQk1D0dd5-127">
          <mxGeometry relative="1" as="geometry">
            <Array as="points">
              <mxPoint x="1870" y="830" />
              <mxPoint x="1720" y="830" />
            </Array>
          </mxGeometry>
        </mxCell>
        <mxCell id="23p0zSZ361LVQk1D0dd5-132" value="LessonId" style="ellipse;whiteSpace=wrap;html=1;fillColor=#d5e8d4;strokeColor=#82b366;" parent="1" vertex="1">
          <mxGeometry x="1825" y="860" width="90" height="30" as="geometry" />
        </mxCell>
        <mxCell id="23p0zSZ361LVQk1D0dd5-139" value="Has" style="shape=associativeEntity;whiteSpace=wrap;html=1;align=center;fillColor=#dae8fc;strokeColor=#6c8ebf;" parent="1" vertex="1">
          <mxGeometry x="720" y="760" width="80" height="40" as="geometry" />
        </mxCell>
        <mxCell id="23p0zSZ361LVQk1D0dd5-141" value="" style="shape=link;html=1;rounded=0;entryX=1;entryY=0.5;entryDx=0;entryDy=0;exitX=0;exitY=0.5;exitDx=0;exitDy=0;" parent="1" source="23p0zSZ361LVQk1D0dd5-139" target="23p0zSZ361LVQk1D0dd5-1" edge="1">
          <mxGeometry relative="1" as="geometry">
            <mxPoint x="680" y="525" as="sourcePoint" />
            <mxPoint x="560" y="596" as="targetPoint" />
            <Array as="points" />
          </mxGeometry>
        </mxCell>
        <mxCell id="23p0zSZ361LVQk1D0dd5-142" value="" style="shape=link;html=1;rounded=0;exitX=0;exitY=0.5;exitDx=0;exitDy=0;entryX=1;entryY=0.5;entryDx=0;entryDy=0;" parent="1" source="23p0zSZ361LVQk1D0dd5-127" target="23p0zSZ361LVQk1D0dd5-139" edge="1">
          <mxGeometry relative="1" as="geometry">
            <mxPoint x="950" y="599.47" as="sourcePoint" />
            <mxPoint x="830" y="599.47" as="targetPoint" />
          </mxGeometry>
        </mxCell>
        <mxCell id="23p0zSZ361LVQk1D0dd5-144" value="1" style="text;html=1;align=center;verticalAlign=middle;resizable=0;points=[];autosize=1;strokeColor=none;fillColor=none;" parent="1" vertex="1">
          <mxGeometry x="340" y="752" width="30" height="30" as="geometry" />
        </mxCell>
        <mxCell id="23p0zSZ361LVQk1D0dd5-145" value="M" style="resizable=0;html=1;align=right;verticalAlign=bottom;" parent="1" connectable="0" vertex="1">
          <mxGeometry x="939.9999980946282" y="989.9994743801801" as="geometry">
            <mxPoint x="668" y="-182" as="offset" />
          </mxGeometry>
        </mxCell>
        <mxCell id="23p0zSZ361LVQk1D0dd5-146" value="Enters Grades&lt;span style=&quot;color: rgb(209, 213, 219); font-family: Söhne, ui-sans-serif, system-ui, -apple-system, &amp;quot;Segoe UI&amp;quot;, Roboto, Ubuntu, Cantarell, &amp;quot;Noto Sans&amp;quot;, sans-serif, &amp;quot;Helvetica Neue&amp;quot;, Arial, &amp;quot;Apple Color Emoji&amp;quot;, &amp;quot;Segoe UI Emoji&amp;quot;, &amp;quot;Segoe UI Symbol&amp;quot;, &amp;quot;Noto Color Emoji&amp;quot;; font-size: 16px; text-align: left; background-color: rgb(68, 70, 84);&quot;&gt; &lt;/span&gt;" style="shape=associativeEntity;whiteSpace=wrap;html=1;align=center;fillColor=#dae8fc;strokeColor=#6c8ebf;" parent="1" vertex="1">
          <mxGeometry x="1715" y="140" width="80" height="40" as="geometry" />
        </mxCell>
        <mxCell id="23p0zSZ361LVQk1D0dd5-147" value="" style="endArrow=none;html=1;rounded=0;exitX=0;exitY=0.5;exitDx=0;exitDy=0;entryX=1;entryY=0.5;entryDx=0;entryDy=0;" parent="1" source="23p0zSZ361LVQk1D0dd5-146" target="23p0zSZ361LVQk1D0dd5-73" edge="1">
          <mxGeometry relative="1" as="geometry">
            <mxPoint x="1080" y="154" as="sourcePoint" />
            <mxPoint x="1070" y="220" as="targetPoint" />
            <Array as="points" />
          </mxGeometry>
        </mxCell>
        <mxCell id="23p0zSZ361LVQk1D0dd5-148" value="1" style="resizable=0;html=1;align=right;verticalAlign=bottom;" parent="23p0zSZ361LVQk1D0dd5-147" connectable="0" vertex="1">
          <mxGeometry x="1" relative="1" as="geometry">
            <mxPoint x="9" as="offset" />
          </mxGeometry>
        </mxCell>
        <mxCell id="23p0zSZ361LVQk1D0dd5-149" value="" style="endArrow=none;html=1;rounded=0;exitX=1;exitY=0;exitDx=0;exitDy=0;entryX=0.5;entryY=1;entryDx=0;entryDy=0;" parent="1" source="23p0zSZ361LVQk1D0dd5-127" target="23p0zSZ361LVQk1D0dd5-146" edge="1">
          <mxGeometry relative="1" as="geometry">
            <mxPoint x="1430" y="220" as="sourcePoint" />
            <mxPoint x="1190" y="220" as="targetPoint" />
            <Array as="points" />
          </mxGeometry>
        </mxCell>
        <mxCell id="23p0zSZ361LVQk1D0dd5-153" value="M" style="text;html=1;align=center;verticalAlign=middle;resizable=0;points=[];autosize=1;strokeColor=none;fillColor=none;" parent="1" vertex="1">
          <mxGeometry x="1765" y="660" width="30" height="30" as="geometry" />
        </mxCell>
        <mxCell id="23p0zSZ361LVQk1D0dd5-154" value="Has Grades" style="shape=associativeEntity;whiteSpace=wrap;html=1;align=center;fillColor=#dae8fc;strokeColor=#6c8ebf;" parent="1" vertex="1">
          <mxGeometry x="1425" y="419" width="80" height="40" as="geometry" />
        </mxCell>
        <mxCell id="23p0zSZ361LVQk1D0dd5-155" value="" style="endArrow=none;html=1;rounded=0;exitX=0;exitY=0.5;exitDx=0;exitDy=0;entryX=1;entryY=0.5;entryDx=0;entryDy=0;" parent="1" source="23p0zSZ361LVQk1D0dd5-154" target="23p0zSZ361LVQk1D0dd5-95" edge="1">
          <mxGeometry relative="1" as="geometry">
            <mxPoint x="1160" y="330" as="sourcePoint" />
            <mxPoint x="920" y="330" as="targetPoint" />
            <Array as="points" />
          </mxGeometry>
        </mxCell>
        <mxCell id="23p0zSZ361LVQk1D0dd5-156" value="1" style="resizable=0;html=1;align=right;verticalAlign=bottom;" parent="23p0zSZ361LVQk1D0dd5-155" connectable="0" vertex="1">
          <mxGeometry x="1" relative="1" as="geometry">
            <mxPoint x="9" as="offset" />
          </mxGeometry>
        </mxCell>
        <mxCell id="23p0zSZ361LVQk1D0dd5-157" value="" style="endArrow=none;html=1;rounded=0;exitX=0.5;exitY=0;exitDx=0;exitDy=0;entryX=1;entryY=0.5;entryDx=0;entryDy=0;" parent="1" source="23p0zSZ361LVQk1D0dd5-127" target="23p0zSZ361LVQk1D0dd5-154" edge="1">
          <mxGeometry relative="1" as="geometry">
            <mxPoint x="1210" y="590" as="sourcePoint" />
            <mxPoint x="1210" y="190" as="targetPoint" />
            <Array as="points" />
          </mxGeometry>
        </mxCell>
        <mxCell id="23p0zSZ361LVQk1D0dd5-158" value="M" style="text;html=1;align=center;verticalAlign=middle;resizable=0;points=[];autosize=1;strokeColor=none;fillColor=none;" parent="1" vertex="1">
          <mxGeometry x="1670" y="654.5" width="30" height="30" as="geometry" />
        </mxCell>
        <mxCell id="AqB2Rs3mdMIoe19Igv_4-2" style="edgeStyle=orthogonalEdgeStyle;rounded=0;orthogonalLoop=1;jettySize=auto;html=1;entryX=0;entryY=0.5;entryDx=0;entryDy=0;" edge="1" parent="1" source="AqB2Rs3mdMIoe19Igv_4-1" target="23p0zSZ361LVQk1D0dd5-1">
          <mxGeometry relative="1" as="geometry" />
        </mxCell>
        <mxCell id="AqB2Rs3mdMIoe19Igv_4-1" value="ClassId" style="ellipse;whiteSpace=wrap;html=1;fillColor=#d5e8d4;strokeColor=#82b366;" vertex="1" parent="1">
          <mxGeometry x="106" y="845.5" width="80" height="30" as="geometry" />
        </mxCell>
        <mxCell id="AqB2Rs3mdMIoe19Igv_4-4" value="1" style="text;html=1;align=center;verticalAlign=middle;resizable=0;points=[];autosize=1;strokeColor=none;fillColor=none;" vertex="1" parent="1">
          <mxGeometry x="390" y="310" width="30" height="30" as="geometry" />
        </mxCell>
        <mxCell id="AqB2Rs3mdMIoe19Igv_4-7" value="" style="endArrow=none;html=1;rounded=0;exitX=0.5;exitY=0;exitDx=0;exitDy=0;entryX=0.5;entryY=1;entryDx=0;entryDy=0;" edge="1" parent="1" source="23p0zSZ361LVQk1D0dd5-1" target="23p0zSZ361LVQk1D0dd5-30">
          <mxGeometry relative="1" as="geometry">
            <mxPoint x="353" y="840.5" as="sourcePoint" />
            <mxPoint x="313" y="699.5" as="targetPoint" />
            <Array as="points" />
          </mxGeometry>
        </mxCell>
        <mxCell id="AqB2Rs3mdMIoe19Igv_4-8" value="" style="endArrow=none;html=1;rounded=0;exitX=0.5;exitY=0;exitDx=0;exitDy=0;" edge="1" parent="1" source="23p0zSZ361LVQk1D0dd5-54" target="23p0zSZ361LVQk1D0dd5-62">
          <mxGeometry relative="1" as="geometry">
            <mxPoint x="322.58" y="1000" as="sourcePoint" />
            <mxPoint x="322.58" y="920" as="targetPoint" />
            <Array as="points" />
          </mxGeometry>
        </mxCell>
        <mxCell id="AqB2Rs3mdMIoe19Igv_4-10" value="M" style="text;html=1;align=center;verticalAlign=middle;resizable=0;points=[];autosize=1;strokeColor=none;fillColor=none;" vertex="1" parent="1">
          <mxGeometry x="250" y="1012" width="30" height="30" as="geometry" />
        </mxCell>
        <mxCell id="AqB2Rs3mdMIoe19Igv_4-12" value="1" style="resizable=0;html=1;align=right;verticalAlign=bottom;" connectable="0" vertex="1" parent="1">
          <mxGeometry x="875.0000000000002" y="419" as="geometry" />
        </mxCell>
        <mxCell id="AqB2Rs3mdMIoe19Igv_4-13" value="" style="endArrow=none;html=1;rounded=0;exitX=0.5;exitY=1;exitDx=0;exitDy=0;entryX=0.5;entryY=0;entryDx=0;entryDy=0;" edge="1" parent="1" source="23p0zSZ361LVQk1D0dd5-120" target="23p0zSZ361LVQk1D0dd5-95">
          <mxGeometry relative="1" as="geometry">
            <mxPoint x="1040" y="380" as="sourcePoint" />
            <mxPoint x="920" y="380" as="targetPoint" />
            <Array as="points" />
          </mxGeometry>
        </mxCell>
        <mxCell id="AqB2Rs3mdMIoe19Igv_4-26" style="edgeStyle=orthogonalEdgeStyle;rounded=0;orthogonalLoop=1;jettySize=auto;html=1;entryX=0.5;entryY=1;entryDx=0;entryDy=0;" edge="1" parent="1" source="AqB2Rs3mdMIoe19Igv_4-15" target="23p0zSZ361LVQk1D0dd5-127">
          <mxGeometry relative="1" as="geometry">
            <Array as="points">
              <mxPoint x="1975" y="830" />
              <mxPoint x="1720" y="830" />
            </Array>
          </mxGeometry>
        </mxCell>
        <mxCell id="AqB2Rs3mdMIoe19Igv_4-15" value="TeacherId" style="ellipse;whiteSpace=wrap;html=1;fillColor=#d5e8d4;strokeColor=#82b366;" vertex="1" parent="1">
          <mxGeometry x="1930" y="860" width="90" height="30" as="geometry" />
        </mxCell>
        <mxCell id="AqB2Rs3mdMIoe19Igv_4-39" value="Lesson" style="rounded=0;whiteSpace=wrap;html=1;fillColor=#ffe6cc;strokeColor=#d79b00;" vertex="1" parent="1">
          <mxGeometry x="1240" y="600" width="80" height="40" as="geometry" />
        </mxCell>
        <mxCell id="AqB2Rs3mdMIoe19Igv_4-45" value="Relates to" style="shape=associativeEntity;whiteSpace=wrap;html=1;align=center;fillColor=#dae8fc;strokeColor=#6c8ebf;" vertex="1" parent="1">
          <mxGeometry x="1040" y="520" width="80" height="40" as="geometry" />
        </mxCell>
        <mxCell id="AqB2Rs3mdMIoe19Igv_4-46" value="" style="shape=link;html=1;rounded=0;exitX=0;exitY=0;exitDx=0;exitDy=0;entryX=1;entryY=1;entryDx=0;entryDy=0;width=5.789473684210527;" edge="1" parent="1" source="AqB2Rs3mdMIoe19Igv_4-45" target="23p0zSZ361LVQk1D0dd5-95">
          <mxGeometry relative="1" as="geometry">
            <mxPoint x="1060" y="500" as="sourcePoint" />
            <mxPoint x="940" y="500" as="targetPoint" />
          </mxGeometry>
        </mxCell>
        <mxCell id="AqB2Rs3mdMIoe19Igv_4-47" value="" style="shape=link;html=1;rounded=0;exitX=0;exitY=0;exitDx=0;exitDy=0;entryX=1;entryY=1;entryDx=0;entryDy=0;width=5.789473684210527;" edge="1" parent="1" source="AqB2Rs3mdMIoe19Igv_4-39" target="AqB2Rs3mdMIoe19Igv_4-45">
          <mxGeometry relative="1" as="geometry">
            <mxPoint x="1320" y="621" as="sourcePoint" />
            <mxPoint x="1200" y="560" as="targetPoint" />
          </mxGeometry>
        </mxCell>
        <mxCell id="AqB2Rs3mdMIoe19Igv_4-48" value="1" style="resizable=0;html=1;align=right;verticalAlign=bottom;" connectable="0" vertex="1" parent="1">
          <mxGeometry x="960" y="469.9999999999999" as="geometry" />
        </mxCell>
        <mxCell id="AqB2Rs3mdMIoe19Igv_4-49" value="M" style="resizable=0;html=1;align=right;verticalAlign=bottom;" connectable="0" vertex="1" parent="1">
          <mxGeometry x="1229.9999980946282" y="589.9994743801801" as="geometry">
            <mxPoint x="-4" y="-4" as="offset" />
          </mxGeometry>
        </mxCell>
        <mxCell id="AqB2Rs3mdMIoe19Igv_4-50" value="Teaches" style="shape=associativeEntity;whiteSpace=wrap;html=1;align=center;fillColor=#dae8fc;strokeColor=#6c8ebf;" vertex="1" parent="1">
          <mxGeometry x="1240" y="279" width="80" height="40" as="geometry" />
        </mxCell>
        <mxCell id="AqB2Rs3mdMIoe19Igv_4-52" value="" style="shape=link;html=1;rounded=0;exitX=0;exitY=0.5;exitDx=0;exitDy=0;entryX=1;entryY=1;entryDx=0;entryDy=0;width=5.789473684210527;" edge="1" parent="1" source="AqB2Rs3mdMIoe19Igv_4-50" target="23p0zSZ361LVQk1D0dd5-73">
          <mxGeometry relative="1" as="geometry">
            <mxPoint x="1120" y="307" as="sourcePoint" />
            <mxPoint x="1000" y="246" as="targetPoint" />
            <Array as="points">
              <mxPoint x="1040" y="300" />
            </Array>
          </mxGeometry>
        </mxCell>
        <mxCell id="AqB2Rs3mdMIoe19Igv_4-53" value="" style="shape=link;html=1;rounded=0;exitX=0.5;exitY=0;exitDx=0;exitDy=0;entryX=0.5;entryY=1;entryDx=0;entryDy=0;width=5.789473684210527;" edge="1" parent="1" source="AqB2Rs3mdMIoe19Igv_4-39" target="AqB2Rs3mdMIoe19Igv_4-50">
          <mxGeometry relative="1" as="geometry">
            <mxPoint x="1610" y="429" as="sourcePoint" />
            <mxPoint x="1290" y="330" as="targetPoint" />
          </mxGeometry>
        </mxCell>
        <mxCell id="AqB2Rs3mdMIoe19Igv_4-54" value="1" style="resizable=0;html=1;align=right;verticalAlign=bottom;" connectable="0" vertex="1" parent="1">
          <mxGeometry x="960" y="199.9999999999999" as="geometry" />
        </mxCell>
        <mxCell id="AqB2Rs3mdMIoe19Igv_4-55" value="M" style="resizable=0;html=1;align=right;verticalAlign=bottom;" connectable="0" vertex="1" parent="1">
          <mxGeometry x="1299.9999980946282" y="589.9994743801801" as="geometry" />
        </mxCell>
        <mxCell id="AqB2Rs3mdMIoe19Igv_4-57" value="Belongs to" style="shape=associativeEntity;whiteSpace=wrap;html=1;align=center;fillColor=#dae8fc;strokeColor=#6c8ebf;" vertex="1" parent="1">
          <mxGeometry x="440" y="600" width="80" height="40" as="geometry" />
        </mxCell>
        <mxCell id="AqB2Rs3mdMIoe19Igv_4-58" value="" style="shape=link;html=1;rounded=0;exitX=0.5;exitY=0;exitDx=0;exitDy=0;entryX=0.5;entryY=1;entryDx=0;entryDy=0;width=5.789473684210527;" edge="1" parent="1" source="AqB2Rs3mdMIoe19Igv_4-57" target="23p0zSZ361LVQk1D0dd5-21">
          <mxGeometry relative="1" as="geometry">
            <mxPoint x="587" y="520" as="sourcePoint" />
            <mxPoint x="467" y="459" as="targetPoint" />
          </mxGeometry>
        </mxCell>
        <mxCell id="AqB2Rs3mdMIoe19Igv_4-59" value="1" style="resizable=0;html=1;align=right;verticalAlign=bottom;" connectable="0" vertex="1" parent="1">
          <mxGeometry x="470" y="357.9999999999999" as="geometry" />
        </mxCell>
        <mxCell id="AqB2Rs3mdMIoe19Igv_4-60" value="" style="shape=link;html=1;rounded=0;exitX=0;exitY=0.5;exitDx=0;exitDy=0;entryX=1;entryY=0.5;entryDx=0;entryDy=0;width=5.789473684210527;" edge="1" parent="1" source="AqB2Rs3mdMIoe19Igv_4-39" target="AqB2Rs3mdMIoe19Igv_4-57">
          <mxGeometry relative="1" as="geometry">
            <mxPoint x="1110" y="680" as="sourcePoint" />
            <mxPoint x="990" y="640" as="targetPoint" />
          </mxGeometry>
        </mxCell>
        <mxCell id="AqB2Rs3mdMIoe19Igv_4-62" value="M" style="resizable=0;html=1;align=right;verticalAlign=bottom;" connectable="0" vertex="1" parent="1">
          <mxGeometry x="1229.9999980946282" y="654.4994743801801" as="geometry">
            <mxPoint x="-4" y="-4" as="offset" />
          </mxGeometry>
        </mxCell>
        <mxCell id="AqB2Rs3mdMIoe19Igv_4-63" value="Related to" style="shape=associativeEntity;whiteSpace=wrap;html=1;align=center;fillColor=#dae8fc;strokeColor=#6c8ebf;" vertex="1" parent="1">
          <mxGeometry x="1480" y="674.5" width="80" height="40" as="geometry" />
        </mxCell>
        <mxCell id="AqB2Rs3mdMIoe19Igv_4-64" value="" style="endArrow=none;html=1;rounded=0;exitX=1;exitY=1;exitDx=0;exitDy=0;entryX=0;entryY=0.5;entryDx=0;entryDy=0;" edge="1" parent="1" source="AqB2Rs3mdMIoe19Igv_4-39" target="AqB2Rs3mdMIoe19Igv_4-63">
          <mxGeometry relative="1" as="geometry">
            <mxPoint x="1410" y="674.5" as="sourcePoint" />
            <mxPoint x="1410" y="774.5" as="targetPoint" />
            <Array as="points" />
          </mxGeometry>
        </mxCell>
        <mxCell id="AqB2Rs3mdMIoe19Igv_4-65" value="" style="shape=link;html=1;rounded=0;exitX=0;exitY=0;exitDx=0;exitDy=0;entryX=1;entryY=0.5;entryDx=0;entryDy=0;width=5.789473684210527;" edge="1" parent="1" source="23p0zSZ361LVQk1D0dd5-127" target="AqB2Rs3mdMIoe19Igv_4-63">
          <mxGeometry relative="1" as="geometry">
            <mxPoint x="1680" y="715.5" as="sourcePoint" />
            <mxPoint x="1560" y="654.5" as="targetPoint" />
          </mxGeometry>
        </mxCell>
        <mxCell id="AqB2Rs3mdMIoe19Igv_4-66" value="M" style="text;html=1;align=center;verticalAlign=middle;resizable=0;points=[];autosize=1;strokeColor=none;fillColor=none;" vertex="1" parent="1">
          <mxGeometry x="1320" y="644.5" width="30" height="30" as="geometry" />
        </mxCell>
        <mxCell id="AqB2Rs3mdMIoe19Igv_4-67" value="N" style="resizable=0;html=1;align=right;verticalAlign=bottom;" connectable="0" vertex="1" parent="1">
          <mxGeometry x="1624.9999980946282" y="751.9994743801803" as="geometry" />
        </mxCell>
        <mxCell id="AqB2Rs3mdMIoe19Igv_4-86" style="edgeStyle=orthogonalEdgeStyle;rounded=0;orthogonalLoop=1;jettySize=auto;html=1;" edge="1" parent="1" source="AqB2Rs3mdMIoe19Igv_4-68" target="AqB2Rs3mdMIoe19Igv_4-39">
          <mxGeometry relative="1" as="geometry">
            <Array as="points">
              <mxPoint x="900" y="690" />
              <mxPoint x="1280" y="690" />
            </Array>
          </mxGeometry>
        </mxCell>
        <mxCell id="AqB2Rs3mdMIoe19Igv_4-68" value="&lt;u&gt;ID&lt;/u&gt;" style="ellipse;whiteSpace=wrap;html=1;fillColor=#d5e8d4;strokeColor=#82b366;" vertex="1" parent="1">
          <mxGeometry x="855" y="714.5" width="90" height="30" as="geometry" />
        </mxCell>
        <mxCell id="AqB2Rs3mdMIoe19Igv_4-88" style="edgeStyle=orthogonalEdgeStyle;rounded=0;orthogonalLoop=1;jettySize=auto;html=1;" edge="1" parent="1" source="AqB2Rs3mdMIoe19Igv_4-69" target="AqB2Rs3mdMIoe19Igv_4-39">
          <mxGeometry relative="1" as="geometry">
            <Array as="points">
              <mxPoint x="1000" y="690" />
              <mxPoint x="1280" y="690" />
            </Array>
          </mxGeometry>
        </mxCell>
        <mxCell id="AqB2Rs3mdMIoe19Igv_4-69" value="Date" style="ellipse;whiteSpace=wrap;html=1;fillColor=#d5e8d4;strokeColor=#82b366;" vertex="1" parent="1">
          <mxGeometry x="955" y="714.5" width="90" height="30" as="geometry" />
        </mxCell>
        <mxCell id="AqB2Rs3mdMIoe19Igv_4-89" style="edgeStyle=orthogonalEdgeStyle;rounded=0;orthogonalLoop=1;jettySize=auto;html=1;" edge="1" parent="1" source="AqB2Rs3mdMIoe19Igv_4-70" target="AqB2Rs3mdMIoe19Igv_4-39">
          <mxGeometry relative="1" as="geometry">
            <Array as="points">
              <mxPoint x="1100" y="690" />
              <mxPoint x="1280" y="690" />
            </Array>
          </mxGeometry>
        </mxCell>
        <mxCell id="AqB2Rs3mdMIoe19Igv_4-70" value="TeacherId" style="ellipse;whiteSpace=wrap;html=1;fillColor=#d5e8d4;strokeColor=#82b366;" vertex="1" parent="1">
          <mxGeometry x="1055" y="714.5" width="90" height="30" as="geometry" />
        </mxCell>
        <mxCell id="AqB2Rs3mdMIoe19Igv_4-90" style="edgeStyle=orthogonalEdgeStyle;rounded=0;orthogonalLoop=1;jettySize=auto;html=1;entryX=0.5;entryY=1;entryDx=0;entryDy=0;" edge="1" parent="1" source="AqB2Rs3mdMIoe19Igv_4-71" target="AqB2Rs3mdMIoe19Igv_4-39">
          <mxGeometry relative="1" as="geometry">
            <Array as="points">
              <mxPoint x="1200" y="690" />
              <mxPoint x="1280" y="690" />
            </Array>
          </mxGeometry>
        </mxCell>
        <mxCell id="AqB2Rs3mdMIoe19Igv_4-71" value="ClassId" style="ellipse;whiteSpace=wrap;html=1;fillColor=#d5e8d4;strokeColor=#82b366;" vertex="1" parent="1">
          <mxGeometry x="1155" y="714.5" width="90" height="30" as="geometry" />
        </mxCell>
        <mxCell id="AqB2Rs3mdMIoe19Igv_4-87" style="edgeStyle=orthogonalEdgeStyle;rounded=0;orthogonalLoop=1;jettySize=auto;html=1;" edge="1" parent="1" source="AqB2Rs3mdMIoe19Igv_4-72" target="AqB2Rs3mdMIoe19Igv_4-39">
          <mxGeometry relative="1" as="geometry">
            <Array as="points">
              <mxPoint x="1305" y="690" />
              <mxPoint x="1280" y="690" />
            </Array>
          </mxGeometry>
        </mxCell>
        <mxCell id="AqB2Rs3mdMIoe19Igv_4-72" value="SubjectId" style="ellipse;whiteSpace=wrap;html=1;fillColor=#d5e8d4;strokeColor=#82b366;" vertex="1" parent="1">
          <mxGeometry x="1260" y="714.5" width="90" height="30" as="geometry" />
        </mxCell>
      </root>
    </mxGraphModel>
  </diagram>
  <diagram id="ZV72nYSdx2qGLrBD1kMe" name="Страница — 2">
    <mxGraphModel dx="1430" dy="578" grid="1" gridSize="10" guides="1" tooltips="1" connect="1" arrows="1" fold="1" page="1" pageScale="1" pageWidth="3300" pageHeight="4681" math="0" shadow="0">
      <root>
        <mxCell id="0" />
        <mxCell id="1" parent="0" />
        <mxCell id="uDrUdtQKj3C7chHD4qGm-1" value="Student" style="swimlane;childLayout=stackLayout;horizontal=1;startSize=30;horizontalStack=0;rounded=1;fontSize=14;fontStyle=0;strokeWidth=2;resizeParent=0;resizeLast=1;shadow=0;dashed=0;align=center;fillColor=#d5e8d4;strokeColor=#82b366;" vertex="1" parent="1">
          <mxGeometry x="180" y="740" width="160" height="150" as="geometry">
            <mxRectangle x="410" y="50" width="70" height="30" as="alternateBounds" />
          </mxGeometry>
        </mxCell>
        <mxCell id="uDrUdtQKj3C7chHD4qGm-2" value="* id&#xa;name&#xa;host_id&#xa;invite_link&#xa;start_time&#xa;&#xa;dwqd&#xa;qwdwqd" style="align=left;strokeColor=none;fillColor=none;spacingLeft=4;fontSize=12;verticalAlign=top;resizable=0;rotatable=0;part=1;" vertex="1" parent="uDrUdtQKj3C7chHD4qGm-1">
          <mxGeometry y="30" width="160" height="120" as="geometry" />
        </mxCell>
      </root>
    </mxGraphModel>
  </diagram>
</mxfile>
